<svg fill="none" height="22" viewBox="0 0 32 22" width="32" xmlns="http://www.w3.org/2000/svg" xmlns:xlink="http://www.w3.org/1999/xlink"><clipPath id="a"><path d="m0 0h32v21.875h-32z"/></clipPath><g clip-path="url(#a)"><path clip-rule="evenodd" d="m28.1179 9.93701c.0114-.18714.0283-.37266.0283-.56223 0-5.17751-4.262-9.37478-9.5198-9.37478-3.7914 0-7.0554 2.18734-8.5865 5.34603-.74289-.56709-1.67291-.90816-2.68476-.90816-2.42552 0-4.3917 1.93621-4.3917 4.32446 0 .44881.06886.88223.19848 1.28887-1.89083 1.1075-3.16192 3.1328-3.16192 5.4562 0 3.4739 2.83301 6.2915 6.34815 6.345l.07453.004.02593.0008.02592-.0008h18.87917c.1151.0056.2277.017.3443.017 3.4803 0 6.302-2.7779 6.302-6.2056 0-2.5834-1.6032-4.7959-3.8821-5.73079zm-19.52732 7.13559c-.63919-.5785-1.03696-1.2801-1.19655-2.1063-.05266-.2763-.0794-.5655-.0794-.8701-.00081-1.1779.42775-2.1518 1.28648-2.9188.85793-.768 1.94919-1.1528 3.27449-1.1521 1.3602 0 2.6427.5088 3.7752 1.5271.2828.2537.5558.5395.8191.8563l1.4565 1.7127c.252.3451.5226.6432.802.8943.7478.6717 1.5595 1.0078 2.245 1.0078.5832 0 1.0701-.1782 1.4622-.5363.3419-.3257.5347-.7154.5777-1.1666l.0088-.1976c0-.196-.0275-.3816-.0842-.5556-.0931-.2901-.2642-.551-.512-.7835-.3872-.3694-.875-.5517-1.4663-.5517-.7268 0-1.4454.2446-2.2328 1.0077l-1.2897-1.5166-.1572-.1758c1.1278-1.105 2.2538-1.5198 3.7695-1.5198 1.3432 0 2.4304.3816 3.2624 1.1432l.0187.0153c.8456.7599 1.2694 1.7426 1.2694 2.9482 0 .2981-.0267.5832-.0794.8546-.1587.8158-.5573 1.5108-1.1941 2.0868-.6253.5761-1.3885.9366-2.2894 1.0799-.3004.0478-.6164.0721-.9478.0721-1.391-.0008-2.6775-.4982-3.7842-1.4914-.2988-.269-.5848-.5736-.8562-.9154l-1.4566-1.7005c-.2463-.3411-.5128-.6359-.7899-.8855-.7461-.67-1.5684-1.0053-2.2732-1.0053-.2187 0-.4237.0258-.6149.0769-.3175.0851-.5954.2423-.8352.4708-.2933.2794-.4772.6011-.55009.9648-.0243.1207-.03726.2471-.03645.3775 0 .5169.18634.9592.55894 1.3262l.0284.0267c.4002.3662.8919.5485 1.4752.5485.7332 0 1.455-.2462 2.2408-1.0159l1.2833 1.4979.1418.1709c-1.1715 1.118-2.2854 1.5409-3.7428 1.5401-1.3424 0-2.4377-.3808-3.28752-1.1415z" fill="#4679a4" fill-rule="evenodd"/></g></svg>